<mxfile host="app.diagrams.net" modified="2023-09-16T12:57:06.691Z" agent="Mozilla/5.0 (Windows NT 10.0; Win64; x64) AppleWebKit/537.36 (KHTML, like Gecko) Chrome/116.0.0.0 Safari/537.36" etag="6oJSSZ3216lnYQnBxrvS" version="21.7.5" type="github">
  <diagram name="Page-1" id="wy1uDOkTjFfYSObw6oI6">
    <mxGraphModel dx="880" dy="478" grid="1" gridSize="10" guides="1" tooltips="1" connect="1" arrows="1" fold="1" page="1" pageScale="1" pageWidth="850" pageHeight="1100" math="0" shadow="0">
      <root>
        <mxCell id="0" />
        <mxCell id="1" parent="0" />
        <mxCell id="uHX7wMrs7N7NSWluRULO-1" value="Actor" style="shape=umlActor;verticalLabelPosition=bottom;verticalAlign=top;html=1;" parent="1" vertex="1">
          <mxGeometry x="230" y="170" width="30" height="60" as="geometry" />
        </mxCell>
        <mxCell id="uHX7wMrs7N7NSWluRULO-2" value="create user" style="ellipse;whiteSpace=wrap;html=1;" parent="1" vertex="1">
          <mxGeometry x="410" y="130" width="140" height="70" as="geometry" />
        </mxCell>
        <mxCell id="uHX7wMrs7N7NSWluRULO-3" value="" style="endArrow=block;dashed=1;endFill=0;endSize=12;html=1;rounded=0;exitX=1;exitY=0.3333333333333333;exitDx=0;exitDy=0;exitPerimeter=0;" parent="1" source="uHX7wMrs7N7NSWluRULO-1" edge="1">
          <mxGeometry width="160" relative="1" as="geometry">
            <mxPoint x="260" y="170" as="sourcePoint" />
            <mxPoint x="420" y="170" as="targetPoint" />
          </mxGeometry>
        </mxCell>
        <mxCell id="uHX7wMrs7N7NSWluRULO-4" value="Get users" style="ellipse;whiteSpace=wrap;html=1;" parent="1" vertex="1">
          <mxGeometry x="410" y="220" width="140" height="70" as="geometry" />
        </mxCell>
        <mxCell id="uHX7wMrs7N7NSWluRULO-5" value="get user by id" style="ellipse;whiteSpace=wrap;html=1;" parent="1" vertex="1">
          <mxGeometry x="420" y="320" width="140" height="70" as="geometry" />
        </mxCell>
        <mxCell id="uHX7wMrs7N7NSWluRULO-6" value="update user" style="ellipse;whiteSpace=wrap;html=1;" parent="1" vertex="1">
          <mxGeometry x="420" y="420" width="140" height="70" as="geometry" />
        </mxCell>
        <mxCell id="uHX7wMrs7N7NSWluRULO-7" value="Delete user" style="ellipse;whiteSpace=wrap;html=1;" parent="1" vertex="1">
          <mxGeometry x="420" y="510" width="140" height="70" as="geometry" />
        </mxCell>
        <mxCell id="uHX7wMrs7N7NSWluRULO-8" value="" style="endArrow=block;dashed=1;endFill=0;endSize=12;html=1;rounded=0;entryX=-0.014;entryY=0.4;entryDx=0;entryDy=0;entryPerimeter=0;" parent="1" target="uHX7wMrs7N7NSWluRULO-4" edge="1">
          <mxGeometry width="160" relative="1" as="geometry">
            <mxPoint x="270" y="190" as="sourcePoint" />
            <mxPoint x="430" y="190" as="targetPoint" />
          </mxGeometry>
        </mxCell>
        <mxCell id="uHX7wMrs7N7NSWluRULO-9" value="" style="endArrow=block;dashed=1;endFill=0;endSize=12;html=1;rounded=0;entryX=-0.014;entryY=0.4;entryDx=0;entryDy=0;entryPerimeter=0;" parent="1" edge="1">
          <mxGeometry width="160" relative="1" as="geometry">
            <mxPoint x="270" y="190" as="sourcePoint" />
            <mxPoint x="420" y="348" as="targetPoint" />
          </mxGeometry>
        </mxCell>
        <mxCell id="uHX7wMrs7N7NSWluRULO-10" value="" style="endArrow=block;dashed=1;endFill=0;endSize=12;html=1;rounded=0;entryX=-0.007;entryY=0.386;entryDx=0;entryDy=0;entryPerimeter=0;" parent="1" target="uHX7wMrs7N7NSWluRULO-6" edge="1">
          <mxGeometry width="160" relative="1" as="geometry">
            <mxPoint x="280" y="200" as="sourcePoint" />
            <mxPoint x="430" y="358" as="targetPoint" />
          </mxGeometry>
        </mxCell>
        <mxCell id="uHX7wMrs7N7NSWluRULO-11" value="" style="endArrow=block;dashed=1;endFill=0;endSize=12;html=1;rounded=0;entryX=-0.007;entryY=0.386;entryDx=0;entryDy=0;entryPerimeter=0;" parent="1" edge="1">
          <mxGeometry width="160" relative="1" as="geometry">
            <mxPoint x="260" y="190" as="sourcePoint" />
            <mxPoint x="425" y="550" as="targetPoint" />
          </mxGeometry>
        </mxCell>
      </root>
    </mxGraphModel>
  </diagram>
</mxfile>
